<?xml version="1.0" standalone="no"?>
<!DOCTYPE svg PUBLIC "-//W3C//DTD SVG 20010904//EN"
 "http://www.w3.org/TR/2001/REC-SVG-20010904/DTD/svg10.dtd">
<svg version="1.0" xmlns="http://www.w3.org/2000/svg"
 width="536.000000pt" height="526.000000pt" viewBox="0 0 536.000000 526.000000"
 preserveAspectRatio="xMidYMid meet">

<g transform="translate(0.000000,526.000000) scale(0.100000,-0.100000)"
fill="#000000" stroke="none">
<path d="M0 2630 l0 -2630 2680 0 2680 0 0 2630 0 2630 -2680 0 -2680 0 0
-2630z m2959 2339 c252 -36 545 -195 732 -397 210 -227 325 -495 350 -815 13
-180 14 -180 -74 -111 -230 180 -530 226 -825 128 -61 -20 -118 -50 -191 -101
l-64 -45 -195 195 -194 194 13 39 c32 98 3 223 -65 281 -73 61 -180 81 -262
47 -44 -18 -109 -76 -130 -115 -103 -198 86 -424 297 -355 l52 18 196 -196
195 -195 -22 -28 c-55 -71 -117 -181 -143 -256 -81 -237 -72 -448 27 -664 30
-67 87 -158 123 -197 l26 -29 -135 6 c-330 14 -625 144 -860 379 -179 180
-295 393 -362 668 -9 37 -13 123 -13 265 1 205 1 213 33 329 147 544 615 929
1177 970 69 5 225 -3 314 -15z m704 -1353 c44 -18 95 -78 103 -121 27 -148
-130 -257 -261 -180 -54 31 -90 106 -80 166 19 110 137 178 238 135z m-641
-662 c42 -22 80 -78 86 -129 10 -96 -51 -179 -142 -191 -59 -9 -88 0 -132 38
-64 57 -81 135 -45 206 46 90 142 121 233 76z m832 -15 c47 -13 120 -79 149
-134 29 -56 29 -173 -1 -230 -47 -91 -138 -145 -246 -145 -175 0 -288 119
-273 286 11 115 73 193 177 225 38 11 150 10 194 -2z m-1041 -683 c130 -34
208 -76 287 -156 69 -69 118 -153 144 -250 27 -98 36 -286 36 -736 0 -254 5
-497 12 -575 6 -73 12 -150 12 -169 l1 -35 -237 -3 c-219 -2 -237 -1 -241 15
-3 10 -11 71 -18 136 -8 76 -16 114 -22 108 -5 -5 -26 -47 -47 -93 -32 -71
-44 -88 -86 -116 -108 -72 -355 -116 -527 -94 -297 37 -490 225 -513 499 -21
247 99 455 331 574 169 87 323 118 640 128 l200 6 3 48 c5 77 -15 222 -36 264
-55 105 -183 156 -334 132 -138 -22 -224 -114 -246 -260 l-7 -54 -239 -3 -239
-2 7 72 c28 307 255 520 626 589 25 4 124 6 220 4 149 -3 190 -7 273 -29z
m1182 -969 l0 -952 -242 -3 -243 -2 0 953 c0 525 2 956 4 958 2 2 112 3 243 1
l238 -3 0 -952z"/>
<path d="M2525 1193 c-64 -6 -169 -31 -220 -53 -73 -31 -121 -75 -151 -137
-23 -47 -27 -68 -26 -129 2 -86 22 -135 76 -182 47 -41 103 -56 211 -57 78 0
98 4 152 29 73 34 154 113 183 180 27 64 40 145 40 251 l0 92 -46 7 c-47 6
-144 6 -219 -1z"/>
</g>
</svg>
