<svg fill="none" height="100%" width="100%" viewBox="0 0 1600 1600" xmlns:xlink="http://www.w3.org/1999/xlink" xmlns="http://www.w3.org/2000/svg"><g id="i0"><g transform="translate(807.355,983.481)"><animateTransform repeatCount="indefinite" type="translate" attributeName="transform" dur="2.667s" begin="0s" calcMode="spline" values="807.355 983.481; 808.314 983.326; 809.237 983.25; 810.117 983.254; 810.947 983.341; 811.717 983.512; 812.421 983.77; 813.058 984.107; 813.664 984.481; 814.236 984.887; 814.769 985.323; 815.259 985.789; 815.7 986.284; 816.088 986.809; 816.418 987.362; 816.687 987.943; 816.889 988.552; 817.023 989.188; 817.084 989.853; 817.069 990.544; 816.975 991.263; 816.799 992.01; 816.537 992.785; 816.187 993.589; 815.746 994.423; 815.211 995.287; 814.58 996.182; 813.853 997.104; 813.044 998.024; 812.161 998.937; 811.206 999.837; 810.187 1000.722; 809.109 1001.586; 807.978 1002.427; 806.801 1003.241; 805.585 1004.023; 804.337 1004.771; 803.064 1005.481; 801.774 1006.149; 800.475 1006.772; 799.174 1007.347; 797.88 1007.872; 796.6 1008.342; 795.343 1008.756; 794.116 1009.111; 792.927 1009.405; 791.784 1009.635; 790.695 1009.8; 789.666 1009.897; 788.705 1009.927; 787.819 1009.886; 787.014 1009.775; 786.297 1009.593; 785.672 1009.339; 785.146 1009.014; 784.408 1008.148; 784.204 1007.609; 784.114 1007.001; 784.141 1006.325; 784.287 1005.584; 784.553 1004.779; 784.939 1003.914; 785.445 1002.99; 786.07 1002.012; 786.811 1000.983; 787.665 999.908; 788.629 998.794; 789.696 997.655; 790.857 996.495; 792.104 995.318; 793.429 994.126; 794.823 992.923; 796.277 991.713; 797.783 990.5; 799.33 989.29; 800.91 988.088; 802.513 986.899; 804.129 985.731; 805.746 984.589; 805.746 984.589" keyTimes="0; 0.0125; 0.025; 0.0375; 0.05; 0.0625; 0.075; 0.0875; 0.1; 0.1125; 0.125; 0.1375; 0.15; 0.1625; 0.175; 0.1875; 0.2; 0.2125; 0.225; 0.2375; 0.25; 0.2625; 0.275; 0.2875; 0.299999; 0.3125; 0.325; 0.3375; 0.35; 0.3625; 0.375; 0.3875; 0.4; 0.4125; 0.425; 0.4375; 0.45; 0.4625; 0.475; 0.4875; 0.5; 0.5125; 0.525; 0.5375; 0.55; 0.5625; 0.574999; 0.5875; 0.6; 0.6125; 0.625; 0.6375; 0.65; 0.6625; 0.675; 0.7; 0.7125; 0.725; 0.737499; 0.75; 0.7625; 0.775; 0.7875; 0.8; 0.8125; 0.825; 0.8375; 0.849999; 0.8625; 0.875; 0.8875; 0.899999; 0.9125; 0.925; 0.9375; 0.95; 0.9625; 0.975; 0.9875; 1" keySplines="0 0 1 1; 0 0 1 1; 0 0 1 1; 0 0 1 1; 0 0 1 1; 0 0 1 1; 0 0 1 1; 0 0 1 1; 0 0 1 1; 0 0 1 1; 0 0 1 1; 0 0 1 1; 0 0 1 1; 0 0 1 1; 0 0 1 1; 0 0 1 1; 0 0 1 1; 0 0 1 1; 0 0 1 1; 0 0 1 1; 0 0 1 1; 0 0 1 1; 0 0 1 1; 0 0 1 1; 0 0 1 1; 0 0 1 1; 0 0 1 1; 0 0 1 1; 0 0 1 1; 0 0 1 1; 0 0 1 1; 0 0 1 1; 0 0 1 1; 0 0 1 1; 0 0 1 1; 0 0 1 1; 0 0 1 1; 0 0 1 1; 0 0 1 1; 0 0 1 1; 0 0 1 1; 0 0 1 1; 0 0 1 1; 0 0 1 1; 0 0 1 1; 0 0 1 1; 0 0 1 1; 0 0 1 1; 0 0 1 1; 0 0 1 1; 0 0 1 1; 0 0 1 1; 0 0 1 1; 0 0 1 1; 0 0 1 1; 0 0 1 1; 0 0 1 1; 0 0 1 1; 0 0 1 1; 0 0 1 1; 0 0 1 1; 0 0 1 1; 0 0 1 1; 0 0 1 1; 0 0 1 1; 0 0 1 1; 0 0 1 1; 0 0 1 1; 0 0 1 1; 0 0 1 1; 0 0 1 1; 0 0 1 1; 0 0 1 1; 0 0 1 1; 0 0 1 1; 0 0 1 1; 0 0 1 1; 0 0 1 1; 0 0 1 1" fill="freeze" /><g transform="rotate(-10)"><animateTransform repeatCount="indefinite" type="rotate" attributeName="transform" dur="2.667s" begin="0s" calcMode="spline" values="-10; -10; 0; 0; -10; -10" keyTimes="0; 0.125; 0.275; 0.5875; 0.7375; 1" keySplines="0 0 1 1; 0.333 0 0.667 1; 0.333 0 0.667 1; 0.333 0 0.667 1; 0 0 1 1" fill="freeze" /><g transform="scale(2.35,2.35) translate(-451.526,176.637)"><g id="i1"><path fill="#4f7053" d="M346.693,-256.804C346.693,-256.804,320.698,-238.957,320.698,-238.957C320.698,-238.957,324.966,-197.054,324.966,-197.054C324.966,-197.054,342.488,-191.712,342.488,-191.712C342.488,-191.712,346.693,-201.71,346.693,-201.71C346.693,-201.71,346.693,-256.804,346.693,-256.804Z" /></g><g id="i2"><path fill="#ba5240" d="M560,-329C557,-301,569,-194,569,-194C569,-194,564,-190,556,-188C544,-185,346,-192,346,-192C346,-192,332,-307,339,-317C342,-335,353,-348,366,-350C396,-355,510,-365,510,-358C525,-358,573,-339,555,-338C563,-332,569,-336,560,-329Z" /></g><g id="i3"><path fill="#faf7f2" d="M569.413,-188.134C569.413,-188.134,569.397,-187.867,569.397,-187.867C569.397,-187.867,508.872,-166.927,502.668,-166.927C496.448,-166.927,373.853,-166.927,373.853,-166.927C373.853,-166.927,342.817,-183.211,342.817,-183.211C342.817,-183.211,342.488,-191.712,342.488,-191.712C351.474,-192.04,361.429,-192.4,361.429,-192.4C361.429,-192.4,358.725,-305.307,358.725,-305.307C358.725,-305.307,492.573,-305.307,492.573,-305.307C492.573,-305.307,492.573,-188.134,492.573,-188.134C492.573,-188.134,569.413,-188.134,569.413,-188.134Z" /></g><g id="i4"><path fill="#2d4a33" d="M590.353,-242.829C590.353,-242.829,590.353,-197.822,590.353,-197.822C590.353,-197.822,569.397,-187.867,569.397,-187.867C569.397,-187.867,548.691,-187.993,548.691,-187.993C548.691,-187.993,532.501,-236.117,532.501,-236.117C532.501,-236.117,565.867,-242.587,565.867,-242.587C565.867,-242.587,586.384,-244.47,586.384,-244.47C586.384,-244.47,590.353,-242.829,590.353,-242.829Z" /></g><g id="i5"><path fill="#4f7053" d="M547.675,-189.29C547.675,-189.29,548.05,-188.806,548.691,-187.993C548.691,-187.993,523.609,-188.134,523.609,-188.134C523.609,-188.134,520.906,-204.432,521.281,-222.654C521.672,-240.891,523.609,-247.111,523.609,-247.111C523.609,-247.111,571.46,-250.627,571.46,-250.627C571.46,-250.627,586.384,-244.47,586.384,-244.47C573.35,-241.579,549.894,-236.14,547.675,-233.906C544.565,-230.812,547.675,-189.29,547.675,-189.29Z" /></g><g id="i6"><path fill="#d4766a" fill-opacity="0.7" d="M472,-228C472,-225.238,469.762,-223,467,-223C464.238,-223,462,-225.238,462,-228C462,-230.762,464.238,-233,467,-233C469.762,-233,472,-230.762,472,-228ZM384,-228C384,-225.238,381.762,-223,379,-223C376.238,-223,374,-225.238,374,-228C374,-230.762,376.238,-233,379,-233C381.762,-233,384,-230.762,384,-228Z" /></g><g id="i7"><path stroke-linejoin="round" stroke-linecap="round" stroke-width="2" stroke="#2d4a33" d="M407.522,-224.258C407.522,-224.258,414.575,-210.5,421.575,-210.5C428.575,-210.5,437.438,-224.258,437.438,-224.258" /></g></g></g></g></g><g id="i0"><g transform="translate(807.355,983.481)"><animateTransform repeatCount="indefinite" type="translate" attributeName="transform" dur="2.667s" begin="0s" calcMode="spline" values="807.355 983.481; 808.314 983.326; 809.237 983.25; 810.117 983.254; 810.947 983.341; 811.717 983.512; 812.421 983.77; 813.058 984.107; 813.664 984.481; 814.236 984.887; 814.769 985.323; 815.259 985.789; 815.7 986.284; 816.088 986.809; 816.418 987.362; 816.687 987.943; 816.889 988.552; 817.023 989.188; 817.084 989.853; 817.069 990.544; 816.975 991.263; 816.799 992.01; 816.537 992.785; 816.187 993.589; 815.746 994.423; 815.211 995.287; 814.58 996.182; 813.853 997.104; 813.044 998.024; 812.161 998.937; 811.206 999.837; 810.187 1000.722; 809.109 1001.586; 807.978 1002.427; 806.801 1003.241; 805.585 1004.023; 804.337 1004.771; 803.064 1005.481; 801.774 1006.149; 800.475 1006.772; 799.174 1007.347; 797.88 1007.872; 796.6 1008.342; 795.343 1008.756; 794.116 1009.111; 792.927 1009.405; 791.784 1009.635; 790.695 1009.8; 789.666 1009.897; 788.705 1009.927; 787.819 1009.886; 787.014 1009.775; 786.297 1009.593; 785.672 1009.339; 785.146 1009.014; 784.408 1008.148; 784.204 1007.609; 784.114 1007.001; 784.141 1006.325; 784.287 1005.584; 784.553 1004.779; 784.939 1003.914; 785.445 1002.99; 786.07 1002.012; 786.811 1000.983; 787.665 999.908; 788.629 998.794; 789.696 997.655; 790.857 996.495; 792.104 995.318; 793.429 994.126; 794.823 992.923; 796.277 991.713; 797.783 990.5; 799.33 989.29; 800.91 988.088; 802.513 986.899; 804.129 985.731; 805.746 984.589; 805.746 984.589" keyTimes="0; 0.0125; 0.025; 0.0375; 0.05; 0.0625; 0.075; 0.0875; 0.1; 0.1125; 0.125; 0.1375; 0.15; 0.1625; 0.175; 0.1875; 0.2; 0.2125; 0.225; 0.2375; 0.25; 0.2625; 0.275; 0.2875; 0.299999; 0.3125; 0.325; 0.3375; 0.35; 0.3625; 0.375; 0.3875; 0.4; 0.4125; 0.425; 0.4375; 0.45; 0.4625; 0.475; 0.4875; 0.5; 0.5125; 0.525; 0.5375; 0.55; 0.5625; 0.574999; 0.5875; 0.6; 0.6125; 0.625; 0.6375; 0.65; 0.6625; 0.675; 0.7; 0.7125; 0.725; 0.737499; 0.75; 0.7625; 0.775; 0.7875; 0.8; 0.8125; 0.825; 0.8375; 0.849999; 0.8625; 0.875; 0.8875; 0.899999; 0.9125; 0.925; 0.9375; 0.95; 0.9625; 0.975; 0.9875; 1" keySplines="0 0 1 1; 0 0 1 1; 0 0 1 1; 0 0 1 1; 0 0 1 1; 0 0 1 1; 0 0 1 1; 0 0 1 1; 0 0 1 1; 0 0 1 1; 0 0 1 1; 0 0 1 1; 0 0 1 1; 0 0 1 1; 0 0 1 1; 0 0 1 1; 0 0 1 1; 0 0 1 1; 0 0 1 1; 0 0 1 1; 0 0 1 1; 0 0 1 1; 0 0 1 1; 0 0 1 1; 0 0 1 1; 0 0 1 1; 0 0 1 1; 0 0 1 1; 0 0 1 1; 0 0 1 1; 0 0 1 1; 0 0 1 1; 0 0 1 1; 0 0 1 1; 0 0 1 1; 0 0 1 1; 0 0 1 1; 0 0 1 1; 0 0 1 1; 0 0 1 1; 0 0 1 1; 0 0 1 1; 0 0 1 1; 0 0 1 1; 0 0 1 1; 0 0 1 1; 0 0 1 1; 0 0 1 1; 0 0 1 1; 0 0 1 1; 0 0 1 1; 0 0 1 1; 0 0 1 1; 0 0 1 1; 0 0 1 1; 0 0 1 1; 0 0 1 1; 0 0 1 1; 0 0 1 1; 0 0 1 1; 0 0 1 1; 0 0 1 1; 0 0 1 1; 0 0 1 1; 0 0 1 1; 0 0 1 1; 0 0 1 1; 0 0 1 1; 0 0 1 1; 0 0 1 1; 0 0 1 1; 0 0 1 1; 0 0 1 1; 0 0 1 1; 0 0 1 1; 0 0 1 1; 0 0 1 1; 0 0 1 1; 0 0 1 1" fill="freeze" /><g transform="rotate(-10)"><animateTransform repeatCount="indefinite" type="rotate" attributeName="transform" dur="2.667s" begin="0s" calcMode="spline" values="-10; -10; 0; 0; -10; -10" keyTimes="0; 0.125; 0.275; 0.5875; 0.7375; 1" keySplines="0 0 1 1; 0.333 0 0.667 1; 0.333 0 0.667 1; 0.333 0 0.667 1; 0 0 1 1" fill="freeze" /><g transform="scale(2.35,2.35) translate(-451.526,176.637)"><g transform="matrix(1.2,0,0,1.2,-85.012,48.595)" id="i8"><g id="i5"><path d="M392.578,-243.368C392.578,-239.359,389.328,-236.109,385.319,-236.109C381.31,-236.109,378.061,-239.359,378.061,-243.368C378.061,-247.377,381.31,-250.627,385.319,-250.627C389.328,-250.627,392.578,-247.377,392.578,-243.368Z" fill="#2d4a33"><animate repeatCount="indefinite" attributeName="d" dur="2.667s" begin="0s" calcMode="spline" values="M392.578,-243.368C392.578,-239.359,389.328,-236.109,385.319,-236.109C381.31,-236.109,378.061,-239.359,378.061,-243.368C378.061,-247.377,381.31,-250.627,385.319,-250.627C389.328,-250.627,392.578,-247.377,392.578,-243.368Z; M392.578,-243.368C392.578,-239.359,389.328,-236.109,385.319,-236.109C381.31,-236.109,378.061,-239.359,378.061,-243.368C378.061,-247.377,381.31,-250.627,385.319,-250.627C389.328,-250.627,392.578,-247.377,392.578,-243.368Z; M392.578,-243.368C392.578,-243.157,389.328,-242.986,385.319,-242.986C381.31,-242.986,378.061,-243.157,378.061,-243.368C378.061,-243.579,381.31,-243.75,385.319,-243.75C389.328,-243.75,392.578,-243.579,392.578,-243.368Z; M392.578,-243.368C392.578,-239.359,389.328,-236.109,385.319,-236.109C381.31,-236.109,378.061,-239.359,378.061,-243.368C378.061,-247.377,381.31,-250.627,385.319,-250.627C389.328,-250.627,392.578,-247.377,392.578,-243.368Z; M392.578,-243.368C392.578,-239.359,389.328,-236.109,385.319,-236.109C381.31,-236.109,378.061,-239.359,378.061,-243.368C378.061,-247.377,381.31,-250.627,385.319,-250.627C389.328,-250.627,392.578,-247.377,392.578,-243.368Z; M392.578,-243.368C392.578,-243.157,389.328,-242.986,385.319,-242.986C381.31,-242.986,378.061,-243.157,378.061,-243.368C378.061,-243.579,381.31,-243.75,385.319,-243.75C389.328,-243.75,392.578,-243.579,392.578,-243.368Z; M392.578,-243.368C392.578,-239.359,389.328,-236.109,385.319,-236.109C381.31,-236.109,378.061,-239.359,378.061,-243.368C378.061,-247.377,381.31,-250.627,385.319,-250.627C389.328,-250.627,392.578,-247.377,392.578,-243.368Z; M392.578,-243.368C392.578,-239.359,389.328,-236.109,385.319,-236.109C381.31,-236.109,378.061,-239.359,378.061,-243.368C378.061,-247.377,381.31,-250.627,385.319,-250.627C389.328,-250.627,392.578,-247.377,392.578,-243.368Z" keyTimes="0; 0.125; 0.1875; 0.25; 0.5875; 0.65; 0.7125; 1" keySplines="0 0 1 1; 0.333 0 0.667 1; 0.333 0 0.667 1; 0.167 0 0.833 1; 0.333 0 0.667 1; 0.333 0 0.667 1; 0 0 1 1" fill="freeze" /></path></g><g id="i7"><path d="M472.056,-242.587C472.056,-238.578,468.807,-235.328,464.798,-235.328C460.789,-235.328,457.539,-238.578,457.539,-242.587C457.539,-246.596,460.789,-249.846,464.798,-249.846C468.807,-249.846,472.056,-246.596,472.056,-242.587Z" fill="#2d4a33"><animate repeatCount="indefinite" attributeName="d" dur="2.667s" begin="0s" calcMode="spline" values="M472.056,-242.587C472.056,-238.578,468.807,-235.328,464.798,-235.328C460.789,-235.328,457.539,-238.578,457.539,-242.587C457.539,-246.596,460.789,-249.846,464.798,-249.846C468.807,-249.846,472.056,-246.596,472.056,-242.587Z; M472.056,-242.587C472.056,-238.578,468.807,-235.328,464.798,-235.328C460.789,-235.328,457.539,-238.578,457.539,-242.587C457.539,-246.596,460.789,-249.846,464.798,-249.846C468.807,-249.846,472.056,-246.596,472.056,-242.587Z; M472.056,-242.587C472.056,-242.29,468.807,-242.048,464.798,-242.048C460.789,-242.048,457.539,-242.29,457.539,-242.587C457.539,-242.884,460.789,-243.125,464.798,-243.125C468.807,-243.125,472.056,-242.884,472.056,-242.587Z; M472.056,-242.587C472.056,-238.578,468.807,-235.328,464.798,-235.328C460.789,-235.328,457.539,-238.578,457.539,-242.587C457.539,-246.596,460.789,-249.846,464.798,-249.846C468.807,-249.846,472.056,-246.596,472.056,-242.587Z; M472.056,-242.587C472.056,-238.578,468.807,-235.328,464.798,-235.328C460.789,-235.328,457.539,-238.578,457.539,-242.587C457.539,-246.596,460.789,-249.846,464.798,-249.846C468.807,-249.846,472.056,-246.596,472.056,-242.587Z; M472.056,-242.587C472.056,-242.29,468.807,-242.048,464.798,-242.048C460.789,-242.048,457.539,-242.29,457.539,-242.587C457.539,-242.884,460.789,-243.125,464.798,-243.125C468.807,-243.125,472.056,-242.884,472.056,-242.587Z; M472.056,-242.587C472.056,-238.578,468.807,-235.328,464.798,-235.328C460.789,-235.328,457.539,-238.578,457.539,-242.587C457.539,-246.596,460.789,-249.846,464.798,-249.846C468.807,-249.846,472.056,-246.596,472.056,-242.587Z; M472.056,-242.587C472.056,-238.578,468.807,-235.328,464.798,-235.328C460.789,-235.328,457.539,-238.578,457.539,-242.587C457.539,-246.596,460.789,-249.846,464.798,-249.846C468.807,-249.846,472.056,-246.596,472.056,-242.587Z" keyTimes="0; 0.125; 0.1875; 0.25; 0.5875; 0.65; 0.7125; 1" keySplines="0 0 1 1; 0.333 0 0.667 1; 0.333 0 0.667 1; 0.167 0 0.833 1; 0.333 0 0.667 1; 0.333 0 0.667 1; 0 0 1 1" fill="freeze" /></path></g></g></g></g></g></g></svg>